<?xml version="1.0" encoding="UTF-8"?>
<!DOCTYPE svg PUBLIC "-//W3C//DTD SVG 1.1//EN" "http://www.w3.org/Graphics/SVG/1.1/DTD/svg11.dtd">
<svg xmlns="http://www.w3.org/2000/svg" version="1.1" width="640px" height="384px" style="shape-rendering:geometricPrecision; text-rendering:geometricPrecision; image-rendering:optimizeQuality; fill-rule:evenodd; clip-rule:evenodd" xmlns:xlink="http://www.w3.org/1999/xlink">
<g><path style="opacity:1" fill="#fefdfe" d="M 0.5,-0.5 C 25.5,-0.5 50.5,-0.5 75.5,-0.5C 134.937,35.7256 194.604,71.7256 254.5,107.5C 255.5,71.5062 255.833,35.5062 255.5,-0.5C 263.833,-0.5 272.167,-0.5 280.5,-0.5C 280.5,50.5 280.5,101.5 280.5,152.5C 186.833,152.5 93.1667,152.5 -0.5,152.5C -0.5,144.167 -0.5,135.833 -0.5,127.5C 45.5012,127.667 91.5012,127.5 137.5,127C 91.3519,99.6717 45.3519,72.1717 -0.5,44.5C -0.5,39.5 -0.5,34.5 -0.5,29.5C 53.8056,61.9886 108.139,94.4886 162.5,127C 179.167,127.667 195.833,127.667 212.5,127C 141.604,84.7256 70.9373,42.2256 0.5,-0.5 Z"/></g>
<g><path style="opacity:1" fill="#012169" d="M 75.5,-0.5 C 135.5,-0.5 195.5,-0.5 255.5,-0.5C 255.833,35.5062 255.5,71.5062 254.5,107.5C 194.604,71.7256 134.937,35.7256 75.5,-0.5 Z"/></g>
<g><path style="opacity:1" fill="#c7102d" d="M 281.5,-0.5 C 306.833,-0.5 332.167,-0.5 357.5,-0.5C 357.5,50.8333 357.5,102.167 357.5,153.5C 451.5,153.5 545.5,153.5 639.5,153.5C 639.5,178.833 639.5,204.167 639.5,229.5C 545.5,229.5 451.5,229.5 357.5,229.5C 357.5,280.833 357.5,332.167 357.5,383.5C 332.167,383.5 306.833,383.5 281.5,383.5C 281.5,332.167 281.5,280.833 281.5,229.5C 187.5,229.5 93.5,229.5 -0.5,229.5C -0.5,204.167 -0.5,178.833 -0.5,153.5C 93.5,153.5 187.5,153.5 281.5,153.5C 281.5,102.167 281.5,50.8333 281.5,-0.5 Z"/></g>
<g><path style="opacity:1" fill="#fefdfe" d="M 358.5,-0.5 C 366.833,-0.5 375.167,-0.5 383.5,-0.5C 383.167,35.5062 383.5,71.5062 384.5,107.5C 444.396,71.7256 504.063,35.7256 563.5,-0.5C 571.833,-0.5 580.167,-0.5 588.5,-0.5C 520.896,40.977 452.896,81.977 384.5,122.5C 383.548,124.045 383.215,125.712 383.5,127.5C 398.17,127.667 412.837,127.5 427.5,127C 498.004,84.6367 568.338,42.1367 638.5,-0.5C 638.833,-0.5 639.167,-0.5 639.5,-0.5C 639.5,14.5 639.5,29.5 639.5,44.5C 593.648,72.1717 547.648,99.6717 501.5,127C 547.499,127.5 593.499,127.667 639.5,127.5C 639.5,135.833 639.5,144.167 639.5,152.5C 545.833,152.5 452.167,152.5 358.5,152.5C 358.5,101.5 358.5,50.5 358.5,-0.5 Z"/></g>
<g><path style="opacity:1" fill="#012169" d="M 383.5,-0.5 C 443.5,-0.5 503.5,-0.5 563.5,-0.5C 504.063,35.7256 444.396,71.7256 384.5,107.5C 383.5,71.5062 383.167,35.5062 383.5,-0.5 Z"/></g>
<g><path style="opacity:1" fill="#c81530" d="M 588.5,-0.5 C 605.167,-0.5 621.833,-0.5 638.5,-0.5C 568.338,42.1367 498.004,84.6367 427.5,127C 412.837,127.5 398.17,127.667 383.5,127.5C 383.215,125.712 383.548,124.045 384.5,122.5C 452.896,81.977 520.896,40.977 588.5,-0.5 Z"/></g>
<g><path style="opacity:1" fill="#c81530" d="M -0.5,-0.5 C -0.166667,-0.5 0.166667,-0.5 0.5,-0.5C 70.9373,42.2256 141.604,84.7256 212.5,127C 195.833,127.667 179.167,127.667 162.5,127C 108.139,94.4886 53.8056,61.9886 -0.5,29.5C -0.5,19.5 -0.5,9.5 -0.5,-0.5 Z"/></g>
<g><path style="opacity:1" fill="#012169" d="M -0.5,44.5 C 45.3519,72.1717 91.3519,99.6717 137.5,127C 91.5012,127.5 45.5012,127.667 -0.5,127.5C -0.5,99.8333 -0.5,72.1667 -0.5,44.5 Z"/></g>
<g><path style="opacity:1" fill="#012169" d="M 639.5,44.5 C 639.5,72.1667 639.5,99.8333 639.5,127.5C 593.499,127.667 547.499,127.5 501.5,127C 547.648,99.6717 593.648,72.1717 639.5,44.5 Z"/></g>
<g><path style="opacity:1" fill="#e89fab" d="M 280.5,-0.5 C 280.833,-0.5 281.167,-0.5 281.5,-0.5C 281.5,50.8333 281.5,102.167 281.5,153.5C 187.5,153.5 93.5,153.5 -0.5,153.5C -0.5,153.167 -0.5,152.833 -0.5,152.5C 93.1667,152.5 186.833,152.5 280.5,152.5C 280.5,101.5 280.5,50.5 280.5,-0.5 Z"/></g>
<g><path style="opacity:1" fill="#e89fab" d="M 357.5,-0.5 C 357.833,-0.5 358.167,-0.5 358.5,-0.5C 358.5,50.5 358.5,101.5 358.5,152.5C 452.167,152.5 545.833,152.5 639.5,152.5C 639.5,152.833 639.5,153.167 639.5,153.5C 545.5,153.5 451.5,153.5 357.5,153.5C 357.5,102.167 357.5,50.8333 357.5,-0.5 Z"/></g>
<g><path style="opacity:1" fill="#e89fab" d="M -0.5,230.5 C -0.5,230.167 -0.5,229.833 -0.5,229.5C 93.5,229.5 187.5,229.5 281.5,229.5C 281.5,280.833 281.5,332.167 281.5,383.5C 281.167,383.5 280.833,383.5 280.5,383.5C 280.5,332.5 280.5,281.5 280.5,230.5C 186.833,230.5 93.1667,230.5 -0.5,230.5 Z"/></g>
<g><path style="opacity:1" fill="#e89fab" d="M 639.5,229.5 C 639.5,229.833 639.5,230.167 639.5,230.5C 545.833,230.5 452.167,230.5 358.5,230.5C 358.5,281.5 358.5,332.5 358.5,383.5C 358.167,383.5 357.833,383.5 357.5,383.5C 357.5,332.167 357.5,280.833 357.5,229.5C 451.5,229.5 545.5,229.5 639.5,229.5 Z"/></g>
<g><path style="opacity:1" fill="#fefdfe" d="M -0.5,230.5 C 93.1667,230.5 186.833,230.5 280.5,230.5C 280.5,281.5 280.5,332.5 280.5,383.5C 272.167,383.5 263.833,383.5 255.5,383.5C 255.833,347.494 255.5,311.494 254.5,275.5C 194.604,311.274 134.937,347.274 75.5,383.5C 67.1667,383.5 58.8333,383.5 50.5,383.5C 118.104,342.023 186.104,301.023 254.5,260.5C 255.452,258.955 255.785,257.288 255.5,255.5C 240.83,255.333 226.163,255.5 211.5,256C 140.996,298.363 70.6624,340.863 0.5,383.5C 0.166667,383.5 -0.166667,383.5 -0.5,383.5C -0.5,368.5 -0.5,353.5 -0.5,338.5C 45.3519,310.828 91.3519,283.328 137.5,256C 91.5012,255.5 45.5012,255.333 -0.5,255.5C -0.5,247.167 -0.5,238.833 -0.5,230.5 Z"/></g>
<g><path style="opacity:1" fill="#fefdfe" d="M 639.5,230.5 C 639.5,238.833 639.5,247.167 639.5,255.5C 593.499,255.333 547.499,255.5 501.5,256C 547.648,283.328 593.648,310.828 639.5,338.5C 639.5,343.5 639.5,348.5 639.5,353.5C 585.194,321.011 530.861,288.511 476.5,256C 459.833,255.333 443.167,255.333 426.5,256C 497.396,298.274 568.063,340.774 638.5,383.5C 613.5,383.5 588.5,383.5 563.5,383.5C 504.063,347.274 444.396,311.274 384.5,275.5C 383.5,311.494 383.167,347.494 383.5,383.5C 375.167,383.5 366.833,383.5 358.5,383.5C 358.5,332.5 358.5,281.5 358.5,230.5C 452.167,230.5 545.833,230.5 639.5,230.5 Z"/></g>
<g><path style="opacity:1" fill="#012169" d="M -0.5,255.5 C 45.5012,255.333 91.5012,255.5 137.5,256C 91.3519,283.328 45.3519,310.828 -0.5,338.5C -0.5,310.833 -0.5,283.167 -0.5,255.5 Z"/></g>
<g><path style="opacity:1" fill="#c81530" d="M 50.5,383.5 C 33.8333,383.5 17.1667,383.5 0.5,383.5C 70.6624,340.863 140.996,298.363 211.5,256C 226.163,255.5 240.83,255.333 255.5,255.5C 255.785,257.288 255.452,258.955 254.5,260.5C 186.104,301.023 118.104,342.023 50.5,383.5 Z"/></g>
<g><path style="opacity:1" fill="#c81530" d="M 639.5,353.5 C 639.5,363.5 639.5,373.5 639.5,383.5C 639.167,383.5 638.833,383.5 638.5,383.5C 568.063,340.774 497.396,298.274 426.5,256C 443.167,255.333 459.833,255.333 476.5,256C 530.861,288.511 585.194,321.011 639.5,353.5 Z"/></g>
<g><path style="opacity:1" fill="#012169" d="M 639.5,255.5 C 639.5,283.167 639.5,310.833 639.5,338.5C 593.648,310.828 547.648,283.328 501.5,256C 547.499,255.5 593.499,255.333 639.5,255.5 Z"/></g>
<g><path style="opacity:1" fill="#012169" d="M 255.5,383.5 C 195.5,383.5 135.5,383.5 75.5,383.5C 134.937,347.274 194.604,311.274 254.5,275.5C 255.5,311.494 255.833,347.494 255.5,383.5 Z"/></g>
<g><path style="opacity:1" fill="#012169" d="M 563.5,383.5 C 503.5,383.5 443.5,383.5 383.5,383.5C 383.167,347.494 383.5,311.494 384.5,275.5C 444.396,311.274 504.063,347.274 563.5,383.5 Z"/></g>
</svg>
